<?xml version="1.0" encoding="UTF-8" standalone="no"?>
<!DOCTYPE svg PUBLIC "-//W3C//DTD SVG 1.1//EN"
 "http://www.w3.org/Graphics/SVG/1.1/DTD/svg11.dtd">
<!-- Generated by graphviz version 2.40.1 (0)
 -->
<!-- Title: compilation Pages: 1 -->
<svg width="794pt" height="44pt"
 viewBox="0.00 0.00 794.14 44.00" xmlns="http://www.w3.org/2000/svg" xmlns:xlink="http://www.w3.org/1999/xlink">
<g id="graph0" class="graph" transform="scale(1 1) rotate(0) translate(4 40)">
<title>compilation</title>
<polygon fill="#ffffff" stroke="transparent" points="-4,4 -4,-40 790.143,-40 790.143,4 -4,4"/>
<!-- Code source -->
<g id="node1" class="node">
<title>Code source</title>
<ellipse fill="none" stroke="#000000" cx="68.8939" cy="-18" rx="68.7879" ry="18"/>
<text text-anchor="middle" x="68.8939" y="-14.3" font-family="Times,serif" font-size="14.00" fill="#000000">Code source</text>
</g>
<!-- Préprocesseur -->
<g id="node2" class="node">
<title>Préprocesseur</title>
<ellipse fill="none" stroke="#000000" cx="252.4308" cy="-18" rx="78.7863" ry="18"/>
<text text-anchor="middle" x="252.4308" y="-14.3" font-family="Times,serif" font-size="14.00" fill="#000000">Préprocesseur</text>
</g>
<!-- Code source&#45;&gt;Préprocesseur -->
<g id="edge1" class="edge">
<title>Code source&#45;&gt;Préprocesseur</title>
<path fill="none" stroke="#000000" d="M138.0198,-18C146.3459,-18 154.9373,-18 163.4958,-18"/>
<polygon fill="#000000" stroke="#000000" points="163.5097,-21.5001 173.5097,-18 163.5097,-14.5001 163.5097,-21.5001"/>
</g>
<!-- Compilateur -->
<g id="node3" class="node">
<title>Compilateur</title>
<ellipse fill="none" stroke="#000000" cx="435.9677" cy="-18" rx="68.7879" ry="18"/>
<text text-anchor="middle" x="435.9677" y="-14.3" font-family="Times,serif" font-size="14.00" fill="#000000">Compilateur</text>
</g>
<!-- Préprocesseur&#45;&gt;Compilateur -->
<g id="edge2" class="edge">
<title>Préprocesseur&#45;&gt;Compilateur</title>
<path fill="none" stroke="#000000" d="M331.3321,-18C339.759,-18 348.3336,-18 356.764,-18"/>
<polygon fill="#000000" stroke="#000000" points="356.9562,-21.5001 366.9562,-18 356.9561,-14.5001 356.9562,-21.5001"/>
</g>
<!-- Linker -->
<g id="node4" class="node">
<title>Linker</title>
<ellipse fill="none" stroke="#000000" cx="582.4579" cy="-18" rx="41.6928" ry="18"/>
<text text-anchor="middle" x="582.4579" y="-14.3" font-family="Times,serif" font-size="14.00" fill="#000000">Linker</text>
</g>
<!-- Compilateur&#45;&gt;Linker -->
<g id="edge3" class="edge">
<title>Compilateur&#45;&gt;Linker</title>
<path fill="none" stroke="#000000" d="M504.9233,-18C513.4805,-18 522.1161,-18 530.3607,-18"/>
<polygon fill="#000000" stroke="#000000" points="530.5594,-21.5001 540.5594,-18 530.5593,-14.5001 530.5594,-21.5001"/>
</g>
<!-- Exécutable -->
<g id="node5" class="node">
<title>Exécutable</title>
<ellipse fill="none" stroke="#000000" cx="723.0986" cy="-18" rx="63.0888" ry="18"/>
<text text-anchor="middle" x="723.0986" y="-14.3" font-family="Times,serif" font-size="14.00" fill="#000000">Exécutable</text>
</g>
<!-- Linker&#45;&gt;Exécutable -->
<g id="edge4" class="edge">
<title>Linker&#45;&gt;Exécutable</title>
<path fill="none" stroke="#000000" d="M624.274,-18C632.3053,-18 640.9337,-18 649.6264,-18"/>
<polygon fill="#000000" stroke="#000000" points="649.8286,-21.5001 659.8286,-18 649.8286,-14.5001 649.8286,-21.5001"/>
</g>
</g>
</svg>
