<?xml version="1.0" encoding="UTF-8"?>
<!DOCTYPE svg PUBLIC "-//W3C//DTD SVG 1.1//EN" "http://www.w3.org/Graphics/SVG/1.1/DTD/svg11.dtd">
<svg version="1.1" xmlns="http://www.w3.org/2000/svg" xmlns:xlink="http://www.w3.org/1999/xlink" x="0" y="0" width="1133.858" height="1133.858" viewBox="0, 0, 1133.858, 1133.858">
  <g id="Calque_1">
    <path d="M0,0 L1133.858,0 L1133.858,1133.858 L0,1133.858 L0,0 z" fill="#131313"/>
    <path d="M980.377,704.608 L759.568,701.861 L709.886,751.304" fill-opacity="0" stroke="#474747" stroke-width="13" stroke-linecap="round" stroke-linejoin="round" display="none"/>
    <g id="ROBOTRONIK">
      <path d="M444.493,626.476 L374.881,626.476 L318.474,682.215 L318.474,746.085" fill-opacity="0" stroke="#474747" stroke-width="13" stroke-linecap="round" stroke-linejoin="round" display="none"/>
      <path d="M231.176,772.092 L234.766,772.092 Q240.392,772.092 243.4,769.763 Q246.408,767.435 246.408,763.069 Q246.408,758.703 243.4,756.375 Q240.392,754.047 234.766,754.047 L231.176,754.047 z M272.99,812.548 L249.318,812.548 L231.176,784.413 L231.176,812.548 L212.161,812.548 L212.161,739.397 L241.751,739.397 Q247.863,739.397 252.423,741.192 Q256.982,742.987 259.941,746.091 Q262.9,749.196 264.404,753.271 Q265.908,757.345 265.908,762.002 Q265.908,770.345 261.882,775.536 Q257.855,780.726 249.997,782.57 z" fill="#E3E3E3"/>
      <path d="M296.177,775.972 Q296.177,780.338 297.826,784.025 Q299.476,787.711 302.289,790.428 Q305.103,793.144 308.838,794.648 Q312.573,796.152 316.745,796.152 Q320.916,796.152 324.652,794.648 Q328.387,793.144 331.249,790.428 Q334.111,787.711 335.76,784.025 Q337.409,780.338 337.409,775.972 Q337.409,771.607 335.76,767.92 Q334.111,764.233 331.249,761.517 Q328.387,758.8 324.652,757.297 Q320.916,755.793 316.745,755.793 Q312.573,755.793 308.838,757.297 Q305.103,758.8 302.289,761.517 Q299.476,764.233 297.826,767.92 Q296.177,771.607 296.177,775.972 z M276.289,775.972 Q276.289,767.823 279.296,760.789 Q282.304,753.756 287.64,748.517 Q292.976,743.278 300.397,740.319 Q307.819,737.36 316.745,737.36 Q325.573,737.36 333.044,740.319 Q340.514,743.278 345.898,748.517 Q351.283,753.756 354.29,760.789 Q357.298,767.823 357.298,775.972 Q357.298,784.122 354.29,791.156 Q351.283,798.189 345.898,803.428 Q340.514,808.667 333.044,811.626 Q325.573,814.585 316.745,814.585 Q307.819,814.585 300.397,811.626 Q292.976,808.667 287.64,803.428 Q282.304,798.189 279.296,791.156 Q276.289,784.122 276.289,775.972 z" fill="#FF0000"/>
      <path d="M388.343,797.801 L392.515,797.801 Q399.694,797.801 402.798,795.958 Q405.903,794.115 405.903,790.04 Q405.903,785.965 402.798,784.122 Q399.694,782.279 392.515,782.279 L388.343,782.279 z M388.343,768.114 L391.836,768.114 Q400.761,768.114 400.761,761.032 Q400.761,753.95 391.836,753.95 L388.343,753.95 z M369.328,739.397 L397.657,739.397 Q407.746,739.397 412.985,744.248 Q418.224,749.099 418.224,758.218 Q418.224,763.748 416.235,767.386 Q414.246,771.025 410.172,773.547 Q414.246,774.323 417.108,775.924 Q419.97,777.525 421.765,779.853 Q423.56,782.181 424.336,785.092 Q425.112,788.003 425.112,791.301 Q425.112,796.443 423.317,800.421 Q421.523,804.398 418.273,807.115 Q415.023,809.831 410.366,811.189 Q405.709,812.548 399.888,812.548 L369.328,812.548 z" fill="#E3E3E3"/>
      <path d="M452.471,775.972 Q452.471,780.338 454.12,784.025 Q455.77,787.711 458.583,790.428 Q461.397,793.144 465.132,794.648 Q468.867,796.152 473.039,796.152 Q477.21,796.152 480.945,794.648 Q484.681,793.144 487.543,790.428 Q490.405,787.711 492.054,784.025 Q493.703,780.338 493.703,775.972 Q493.703,771.607 492.054,767.92 Q490.405,764.233 487.543,761.517 Q484.681,758.8 480.945,757.297 Q477.21,755.793 473.039,755.793 Q468.867,755.793 465.132,757.297 Q461.397,758.8 458.583,761.517 Q455.77,764.233 454.12,767.92 Q452.471,771.607 452.471,775.972 z M432.583,775.972 Q432.583,767.823 435.59,760.789 Q438.598,753.756 443.934,748.517 Q449.27,743.278 456.691,740.319 Q464.113,737.36 473.039,737.36 Q481.867,737.36 489.337,740.319 Q496.808,743.278 502.192,748.517 Q507.577,753.756 510.584,760.789 Q513.592,767.823 513.592,775.972 Q513.592,784.122 510.584,791.156 Q507.577,798.189 502.192,803.428 Q496.808,808.667 489.337,811.626 Q481.867,814.585 473.039,814.585 Q464.113,814.585 456.691,811.626 Q449.27,808.667 443.934,803.428 Q438.598,798.189 435.59,791.156 Q432.583,784.122 432.583,775.972 z" fill="#E3E3E3"/>
      <path d="M552.592,755.502 L552.592,812.548 L533.577,812.548 L533.577,755.502 L517.957,755.502 L517.957,739.397 L568.212,739.397 L568.212,755.502 z" fill="#E3E3E3"/>
      <path d="M595.668,772.092 L599.257,772.092 Q604.884,772.092 607.892,769.763 Q610.899,767.435 610.899,763.069 Q610.899,758.703 607.892,756.375 Q604.884,754.047 599.257,754.047 L595.668,754.047 z M637.482,812.548 L613.81,812.548 L595.668,784.413 L595.668,812.548 L576.652,812.548 L576.652,739.397 L606.242,739.397 Q612.355,739.397 616.914,741.192 Q621.474,742.987 624.433,746.091 Q627.392,749.196 628.896,753.271 Q630.4,757.345 630.4,762.002 Q630.4,770.345 626.373,775.536 Q622.347,780.726 614.489,782.57 z" fill="#E3E3E3"/>
      <path d="M660.669,775.972 Q660.669,780.338 662.318,784.025 Q663.967,787.711 666.781,790.428 Q669.594,793.144 673.33,794.648 Q677.065,796.152 681.236,796.152 Q685.408,796.152 689.143,794.648 Q692.878,793.144 695.74,790.428 Q698.602,787.711 700.252,784.025 Q701.901,780.338 701.901,775.972 Q701.901,771.607 700.252,767.92 Q698.602,764.233 695.74,761.517 Q692.878,758.8 689.143,757.297 Q685.408,755.793 681.236,755.793 Q677.065,755.793 673.33,757.297 Q669.594,758.8 666.781,761.517 Q663.967,764.233 662.318,767.92 Q660.669,771.607 660.669,775.972 z M640.781,775.972 Q640.781,767.823 643.788,760.789 Q646.796,753.756 652.131,748.517 Q657.467,743.278 664.889,740.319 Q672.311,737.36 681.236,737.36 Q690.065,737.36 697.535,740.319 Q705.006,743.278 710.39,748.517 Q715.774,753.756 718.782,760.789 Q721.789,767.823 721.789,775.972 Q721.789,784.122 718.782,791.156 Q715.774,798.189 710.39,803.428 Q705.006,808.667 697.535,811.626 Q690.065,814.585 681.236,814.585 Q672.311,814.585 664.889,811.626 Q657.467,808.667 652.131,803.428 Q646.796,798.189 643.788,791.156 Q640.781,784.122 640.781,775.972 z" fill="#E3E3E3"/>
      <path d="M733.819,812.548 L733.819,739.397 L752.835,739.397 L787.955,784.122 L787.955,739.397 L806.873,739.397 L806.873,812.548 L787.955,812.548 L752.835,767.823 L752.835,812.548 z" fill="#E3E3E3"/>
      <path d="M841.217,739.397 L841.217,812.548 L822.202,812.548 L822.202,739.397 z" fill="#E3E3E3"/>
      <path d="M875.561,769.569 L898.748,739.397 L922.226,739.397 L893.218,774.032 L924.942,812.548 L900.3,812.548 L875.561,780.823 L875.561,812.548 L856.546,812.548 L856.546,739.397 L875.561,739.397 z" fill="#E3E3E3"/>
    </g>
    <path d="M758.33,858.691 L758.33,872.468 L753.21,872.468 L753.21,838.542 L759.011,838.542 Q763.274,838.542 765.449,839.135 Q767.646,839.729 769.316,841.377 Q772.238,844.233 772.238,848.584 Q772.238,853.242 769.118,855.966 Q765.998,858.691 760.703,858.691 z M758.33,853.945 L760.241,853.945 Q767.295,853.945 767.295,848.518 Q767.295,843.266 760.022,843.266 L758.33,843.266 z" fill="#FF0000"/>
    <path d="M782.632,851.814 L797.265,851.814 L797.265,838.542 L802.385,838.542 L802.385,872.468 L797.265,872.468 L797.265,856.626 L782.632,856.626 L782.632,872.468 L777.512,872.468 L777.512,838.542 L782.632,838.542 z" fill="#FF0000"/>
    <path d="M829.236,843.354 L815.634,843.354 L815.634,851.506 L828.84,851.506 L828.84,856.318 L815.634,856.318 L815.634,867.656 L829.236,867.656 L829.236,872.468 L810.515,872.468 L810.515,838.542 L829.236,838.542 z" fill="#FF0000"/>
    <path d="M841.079,838.542 L841.079,867.656 L851.054,867.656 L851.054,872.468 L835.959,872.468 L835.959,838.542 z" fill="#FF0000"/>
    <path d="M854.724,872.468 L861.865,835.993 L873.51,862.361 L885.573,835.993 L891.989,872.468 L886.738,872.468 L883.464,851.989 L873.423,874.028 L863.667,851.967 L860.019,872.468 z" fill="#FF0000"/>
    <path d="M919.104,864.228 L904.58,864.228 L900.8,872.468 L895.285,872.468 L912.072,836.411 L928.266,872.468 L922.663,872.468 z M917.016,859.416 L911.985,847.881 L906.711,859.416 z" fill="#FF0000"/>
    <g>
      <path d="M499.61,523.946 C508.009,494.172 535.384,472.422 567.858,472.422 C600.333,472.422 627.707,494.247 636.107,523.946 L691.231,483.072 L689.281,478.422 L660.331,482.772 C651.857,469.798 640.907,458.998 628.382,450.823 L632.657,421.874 L607.832,411.599 L590.433,435.148 C575.808,432.073 560.433,431.923 545.209,435.148 L527.884,411.599 L503.06,421.874 L507.335,450.823 C494.36,459.298 483.56,470.247 475.385,482.772 L446.436,478.497 L444.561,483.072 L499.61,523.946 z" fill="#E3E3E3"/>
      <path d="M677.881,567.32 C677.131,567.545 676.381,567.77 675.631,567.995 C675.406,568.07 675.181,568.145 675.031,568.145 C674.731,568.22 674.431,568.295 674.056,568.445 C673.081,568.745 671.806,569.045 670.156,569.495 C658.906,572.57 649.232,574.67 629.807,578.57 C629.132,578.72 629.132,578.72 628.382,578.87 C628.307,578.87 628.157,578.945 628.082,578.945 C619.307,592.895 605.807,603.62 589.833,608.795 C586.383,620.119 577.308,632.494 568.083,638.194 L567.858,638.194 C557.883,631.969 548.959,620.419 545.734,608.72 C529.909,603.545 516.634,592.97 507.859,579.095 C504.56,578.42 498.935,577.22 494.885,576.32 C482.285,573.92 469.535,570.695 455.961,566.72 L436.161,581.345 L446.436,606.17 L475.385,601.895 C483.86,614.87 494.81,625.669 507.335,633.844 L503.06,662.794 L527.884,673.068 L545.284,649.519 C559.908,652.594 575.283,652.744 590.508,649.519 L607.907,673.068 L632.732,662.794 L628.457,633.844 C641.432,625.369 652.232,614.419 660.406,601.895 L689.356,606.17 L699.631,581.345 L679.906,566.72 C679.231,566.945 678.556,567.17 677.881,567.32 z" fill="#E3E3E3"/>
    </g>
    <g>
      <path d="M567.858,635.515 C567.858,549.206 504.205,606.745 355.786,520.436 L567.858,577.976 L779.931,520.436 C631.512,606.745 567.858,549.206 567.858,635.515 z" fill="#F67878" id="path10744-7_1_"/>
      <path d="M567.858,635.515 C567.858,549.206 504.205,606.745 355.786,520.436 L567.858,589.773 L779.931,520.436 C631.512,606.745 567.858,549.206 567.858,635.515 L567.858,635.515 z" fill="#FF0000" id="path10744-7-5_1_"/>
      <path d="M567.858,636.139 C567.858,549.362 398.222,578.288 313.351,462.585 L567.858,578.288 L822.366,462.585 C737.495,578.288 567.858,549.362 567.858,636.139 z" fill="#F67878" id="path10794_1_"/>
      <path d="M567.858,636.139 C567.858,549.362 398.222,578.288 313.351,462.585 L507.14,566.877 L567.858,602.115 L629.92,566.877 L822.366,462.585 C737.495,578.288 567.858,549.362 567.858,636.139 L567.858,636.139 z" fill="#FF0000" id="path10794-6_1_"/>
      <g id="path10744_1_">
        <path d="M568.358,636.639 C568.358,636.639 568.358,636.639 568.358,636.639 C568.358,636.639 568.358,636.639 568.358,636.639 C568.358,636.639 568.358,636.639 568.358,636.639 C568.358,636.639 568.358,636.639 568.358,636.639 C568.358,634.036 568.129,631.485 567.684,628.981 C553.298,548.022 313.214,516.601 292.633,376.412 L568.358,578.788 L844.084,376.412 C844.084,376.412 844.084,376.412 844.084,376.412 C823.482,516.744 582.928,548.086 568.989,629.229 C568.573,631.653 568.358,634.122 568.358,636.639 z" fill="#F67878"/>
        <path d="M568.358,636.639 C568.358,636.639 568.358,636.639 568.358,636.639 C568.358,636.639 568.358,636.639 568.358,636.639 C568.358,636.639 568.358,636.639 568.358,636.639 C568.358,636.639 568.358,636.639 568.358,636.639 C568.358,634.036 568.129,631.485 567.684,628.981 C553.298,548.022 313.214,516.601 292.633,376.412 L568.358,578.788 L844.084,376.412 C844.084,376.412 844.084,376.412 844.084,376.412 C823.482,516.744 582.928,548.086 568.989,629.229 C568.573,631.653 568.358,634.122 568.358,636.639 z" fill-opacity="0" stroke="#000000" stroke-width="0.055" stroke-opacity="0.995"/>
      </g>
      <path d="M567.858,637.908 C567.858,551.131 313.351,520.228 292.133,375.6 L567.858,602.115 L843.584,375.6 C822.366,520.228 567.858,551.131 567.858,637.908 z" fill="#FF0000" id="path10744-4_1_"/>
      <path d="M567.858,554.46 C567.858,564.345 548.111,585.987 548.111,602.531 C548.111,618.971 561.136,632.185 567.858,635.515 C574.476,632.081 587.501,617.514 587.501,602.531 C587.501,585.987 567.858,564.345 567.858,554.46 z" fill="#F67878" id="path4655_1_"/>
      <path d="M567.963,554.46 C567.963,563.721 550.317,584.219 550.317,599.722 C550.317,615.225 561.976,627.607 567.963,630.833 C573.951,627.607 585.61,613.873 585.61,599.722 C585.61,584.219 567.963,563.825 567.963,554.46 z" fill="#FF0000" id="path4655-6_1_"/>
      <path d="M567.858,530.633 L556.619,559.247 L548.216,544.992 C548.216,573.605 559.455,599.306 567.963,616.474 C576.366,599.306 587.711,573.605 587.711,544.992 L579.307,559.247 L567.858,530.633 z" fill="#F67878" id="path4724_1_"/>
      <path d="M567.858,535.419 L556.094,564.033 L552.103,554.46 C552.103,583.074 559.455,594.519 567.858,611.688 C576.261,594.519 583.614,583.074 583.614,554.46 L579.728,564.033 L567.858,535.419 z" fill="#FF0000" id="path4724-5_1_" opacity="0.99"/>
      <path d="M567.858,599.366 L563.931,608.476 L567.858,616.474 L571.712,608.476 L567.858,599.366 z" fill="#E3E3E3" id="path11144_1_" opacity="0.99"/>
    </g>
  </g>
  <g id="Calque_2" display="none">
    <path d="M406.653,577.351 L194.183,577.351" fill-opacity="0" stroke="#474747" stroke-width="13" stroke-linecap="round"/>
    <path d="M168.378,599.753 C156.006,599.753 145.976,589.723 145.976,577.351 C145.976,564.979 156.006,554.949 168.378,554.949 C180.751,554.949 190.781,564.979 190.781,577.351 C190.781,589.723 180.751,599.753 168.378,599.753 z" fill-opacity="0" stroke="#474747" stroke-width="13"/>
    <path d="M292.633,503.399 L117.588,503.399" fill-opacity="0" stroke="#474747" stroke-width="13" stroke-linecap="round"/>
    <path d="M91.108,525.802 C78.736,525.802 68.706,515.772 68.706,503.399 C68.706,491.027 78.736,480.997 91.108,480.997 C103.48,480.997 113.51,491.027 113.51,503.399 C113.51,515.772 103.48,525.802 91.108,525.802 z" fill-opacity="0" stroke="#474747" stroke-width="13"/>
    <path d="M681.203,641.375 L891.425,641.375" fill-opacity="0" stroke="#474747" stroke-width="13" stroke-linecap="round"/>
    <path d="M919.878,616.674 C933.52,616.674 944.579,627.733 944.579,641.375 C944.579,655.017 933.52,666.077 919.878,666.077 C906.236,666.077 895.177,655.017 895.177,641.375 C895.177,627.733 906.236,616.674 919.878,616.674 z" fill-opacity="0" stroke="#474747" stroke-width="13"/>
    <path d="M1005.078,682.215 C1018.72,682.215 1029.779,693.274 1029.779,706.916 C1029.779,720.558 1018.72,731.617 1005.078,731.617 C991.436,731.617 980.377,720.558 980.377,706.916 C980.377,693.274 991.436,682.215 1005.078,682.215 z" fill-opacity="0" stroke="#474747" stroke-width="13"/>
    <path d="M728.96,577.351 L844.084,577.351 L980.377,439.221 L980.377,356.981" fill-opacity="0" stroke="#474747" stroke-width="13" stroke-linecap="round"/>
    <path d="M980.274,306.894 C993.916,306.894 1004.975,317.954 1004.975,331.596 C1004.975,345.238 993.916,356.297 980.274,356.297 C966.632,356.297 955.573,345.238 955.573,331.596 C955.573,317.954 966.632,306.894 980.274,306.894 z" fill-opacity="0" stroke="#474747" stroke-width="13"/>
    <text transform="matrix(1, 0, 0, 1, 979.774, 296.536)" display="none">
      <tspan x="-12.002" y="-6.5" font-family="Courier" font-size="20" fill="#E3E3E3">5V</tspan>
    </text>
    <text transform="matrix(1, 0, 0, 1, 445.294, 891.191)" display="none">
      <tspan x="-18.003" y="-7.363" font-family="Courier" font-size="20" fill="#E3E3E3">GND</tspan>
    </text>
  </g>
  <g id="Calque_3" display="none">
    <path d="M678.884,214.131 C692.526,214.131 703.585,225.19 703.585,238.832 C703.585,252.474 692.526,263.533 678.884,263.533 C665.242,263.533 654.183,252.474 654.183,238.832 C654.183,225.19 665.242,214.131 678.884,214.131 z" fill-opacity="0" stroke="#474747" stroke-width="13"/>
    <g>
      <path d="M680.494,210.862 L679.688,0.503" fill="#FFFFFF"/>
      <path d="M680.494,210.862 L679.688,0.503" fill-opacity="0" stroke="#474747" stroke-width="13" stroke-linecap="round" stroke-linejoin="round"/>
    </g>
    <path d="M771.465,61.279 C785.107,61.279 796.166,72.338 796.166,85.981 C796.166,99.623 785.107,110.682 771.465,110.682 C757.823,110.682 746.764,99.623 746.764,85.981 C746.764,72.338 757.823,61.279 771.465,61.279 z" fill-opacity="0" stroke="#474747" stroke-width="13"/>
    <g>
      <path d="M773.075,58.01 L772.269,-152.349" fill="#FFFFFF"/>
      <path d="M773.075,58.01 L772.269,-152.349" fill-opacity="0" stroke="#474747" stroke-width="13" stroke-linecap="round" stroke-linejoin="round"/>
    </g>
    <path d="M871.361,113.951 C885.003,113.951 896.062,125.01 896.062,138.652 C896.062,152.294 885.003,163.353 871.361,163.353 C857.719,163.353 846.66,152.294 846.66,138.652 C846.66,125.01 857.719,113.951 871.361,113.951 z" fill-opacity="0" stroke="#474747" stroke-width="13"/>
    <g>
      <path d="M872.971,110.682 L872.165,-99.677" fill="#FFFFFF"/>
      <path d="M872.971,110.682 L872.165,-99.677" fill-opacity="0" stroke="#474747" stroke-width="13" stroke-linecap="round" stroke-linejoin="round"/>
    </g>
    <path d="M983.781,65.29 C993.428,74.937 993.428,90.577 983.781,100.223 C974.135,109.869 958.495,109.869 948.849,100.223 C939.202,90.577 939.202,74.937 948.849,65.29 C958.495,55.644 974.135,55.644 983.781,65.29 z" fill-opacity="0" stroke="#474747" stroke-width="13"/>
    <g>
      <path d="M987.232,64.117 L1135.408,-85.199" fill="#FFFFFF"/>
      <path d="M987.232,64.117 L1135.408,-85.199" fill-opacity="0" stroke="#474747" stroke-width="13" stroke-linecap="round" stroke-linejoin="round"/>
    </g>
    <path d="M867.195,284.965 C876.841,294.611 876.841,310.251 867.195,319.897 C857.549,329.544 841.909,329.544 832.262,319.897 C822.616,310.251 822.616,294.611 832.262,284.965 C841.909,275.318 857.549,275.318 867.195,284.965 z" fill-opacity="0" stroke="#474747" stroke-width="13"/>
    <g>
      <path d="M870.645,283.791 L1163.723,-9.287" fill="#FFFFFF"/>
      <path d="M870.645,283.791 L1163.723,-9.287" fill-opacity="0" stroke="#474747" stroke-width="13" stroke-linecap="round" stroke-linejoin="round"/>
    </g>
    <path d="M1068.55,170.569 L1184.356,56.697 L1219.679,56.697 L1279.293,0.503" fill-opacity="0" stroke="#474747" stroke-width="13" stroke-linecap="round" stroke-linejoin="round"/>
    <path d="M1069.518,168.694 C1079.165,178.341 1079.165,193.981 1069.518,203.627 C1059.872,213.273 1044.232,213.273 1034.585,203.627 C1024.939,193.981 1024.939,178.341 1034.585,168.694 C1044.232,159.048 1059.872,159.048 1069.518,168.694 z" fill-opacity="0" stroke="#474747" stroke-width="13"/>
    <path d="M734.847,356.696 L734.847,299.132 L776.216,260.132" fill-opacity="0" stroke="#474747" stroke-width="13" stroke-linecap="round" stroke-linejoin="round"/>
    <path d="M793.467,217.131 C807.109,217.131 818.168,228.19 818.168,241.832 C818.168,255.474 807.109,266.533 793.467,266.533 C779.825,266.533 768.766,255.474 768.766,241.832 C768.766,228.19 779.825,217.131 793.467,217.131 z" fill-opacity="0" stroke="#474747" stroke-width="13"/>
    <path d="M734.587,357.696 C748.229,357.696 759.288,368.755 759.288,382.397 C759.288,396.04 748.229,407.099 734.587,407.099 C720.945,407.099 709.886,396.04 709.886,382.397 C709.886,368.755 720.945,357.696 734.587,357.696 z" fill-opacity="0" stroke="#474747" stroke-width="13"/>
    <path d="M587.164,277.73 C600.806,277.73 611.865,288.789 611.865,302.431 C611.865,316.073 600.806,327.132 587.164,327.132 C573.522,327.132 562.463,316.073 562.463,302.431 C562.463,288.789 573.522,277.73 587.164,277.73 z" fill-opacity="0" stroke="#474747" stroke-width="13"/>
    <g>
      <path d="M587.968,277.73 L587.968,-15.899" fill="#FFFFFF"/>
      <path d="M587.968,277.73 L587.968,-15.899" fill-opacity="0" stroke="#474747" stroke-width="13" stroke-linecap="round" stroke-linejoin="round"/>
    </g>
    <path d="M194.949,200.184 L79.143,86.311 L43.819,86.311 L-15.795,30.117" fill-opacity="0" stroke="#474747" stroke-width="13" stroke-linecap="round" stroke-linejoin="round"/>
    <path d="M195.98,200.309 C186.334,209.955 186.334,225.595 195.98,235.241 C205.627,244.888 221.267,244.888 230.913,235.241 C240.56,225.595 240.56,209.955 230.913,200.309 C221.267,190.662 205.627,190.662 195.98,200.309 z" fill-opacity="0" stroke="#474747" stroke-width="13"/>
    <path d="M420.833,361.696 L420.833,304.132 L379.464,265.132" fill-opacity="0" stroke="#474747" stroke-width="13" stroke-linecap="round" stroke-linejoin="round"/>
    <path d="M362.213,222.131 C348.571,222.131 337.512,233.19 337.512,246.832 C337.512,260.474 348.571,271.533 362.213,271.533 C375.855,271.533 386.914,260.474 386.914,246.832 C386.914,233.19 375.855,222.131 362.213,222.131 z" fill-opacity="0" stroke="#474747" stroke-width="13"/>
    <path d="M421.093,362.696 C407.451,362.696 396.392,373.755 396.392,387.398 C396.392,401.04 407.451,412.099 421.093,412.099 C434.735,412.099 445.794,401.04 445.794,387.398 C445.794,373.755 434.735,362.696 421.093,362.696 z" fill-opacity="0" stroke="#474747" stroke-width="13"/>
    <path d="M280.734,168.694 C271.087,178.341 271.087,193.981 280.734,203.627 C290.38,213.273 306.02,213.273 315.666,203.627 C325.313,193.981 325.313,178.341 315.666,168.694 C306.02,159.048 290.38,159.048 280.734,168.694 z" fill-opacity="0" stroke="#474747" stroke-width="13"/>
    <g>
      <path d="M277.283,167.521 L-15.795,-125.557" fill="#FFFFFF"/>
      <path d="M277.283,167.521 L-15.795,-125.557" fill-opacity="0" stroke="#474747" stroke-width="13" stroke-linecap="round" stroke-linejoin="round"/>
    </g>
    <path d="M492.898,249.73 C506.54,249.73 517.599,260.789 517.599,274.431 C517.599,288.073 506.54,299.132 492.898,299.132 C479.256,299.132 468.196,288.073 468.196,274.431 C468.196,260.789 479.256,249.73 492.898,249.73 z" fill-opacity="0" stroke="#474747" stroke-width="13"/>
    <g>
      <path d="M493.702,249.73 L493.702,-122.899" fill="#FFFFFF"/>
      <path d="M493.702,249.73 L493.702,-122.899" fill-opacity="0" stroke="#474747" stroke-width="13" stroke-linecap="round" stroke-linejoin="round"/>
    </g>
    <path d="M166.86,-53.14 L282.666,60.732 L317.99,60.732 L377.604,116.927" fill-opacity="0" stroke="#474747" stroke-width="13" stroke-linecap="round" stroke-linejoin="round"/>
    <path d="M416.619,153.382 C426.265,143.735 426.265,128.096 416.619,118.449 C406.972,108.803 391.332,108.803 381.686,118.449 C372.04,128.096 372.04,143.735 381.686,153.382 C391.332,163.028 406.972,163.028 416.619,153.382 z" fill-opacity="0" stroke="#474747" stroke-width="13"/>
    <path d="M194.818,315.531 C185.171,325.177 185.171,340.817 194.818,350.463 C204.464,360.11 220.104,360.11 229.751,350.463 C239.397,340.817 239.397,325.177 229.751,315.531 C220.104,305.884 204.464,305.884 194.818,315.531 z" fill-opacity="0" stroke="#474747" stroke-width="13"/>
    <g>
      <path d="M191.368,314.357 L-101.71,21.279" fill="#FFFFFF"/>
      <path d="M191.368,314.357 L-101.71,21.279" fill-opacity="0" stroke="#474747" stroke-width="13" stroke-linecap="round" stroke-linejoin="round"/>
    </g>
    <path d="M187.583,436.8 C187.583,423.158 198.642,412.099 212.284,412.099 C225.926,412.099 236.986,423.158 236.986,436.8 C236.986,450.442 225.926,461.501 212.284,461.501 C198.642,461.501 187.583,450.442 187.583,436.8 z" fill-opacity="0" stroke="#474747" stroke-width="13"/>
    <g>
      <path d="M187.583,435.996 L-106.045,435.996" fill="#FFFFFF"/>
      <path d="M187.583,435.996 L-106.045,435.996" fill-opacity="0" stroke="#474747" stroke-width="13" stroke-linecap="round" stroke-linejoin="round"/>
    </g>
    <path d="M1011.141,552.65 C1011.141,539.008 1000.082,527.949 986.44,527.949 C972.798,527.949 961.739,539.008 961.739,552.65 C961.739,566.292 972.798,577.351 986.44,577.351 C1000.082,577.351 1011.141,566.292 1011.141,552.65 z" fill-opacity="0" stroke="#474747" stroke-width="13"/>
    <g>
      <path d="M1011.141,551.846 L1304.769,551.846" fill="#FFFFFF"/>
      <path d="M1011.141,551.846 L1304.769,551.846" fill-opacity="0" stroke="#474747" stroke-width="13" stroke-linecap="round" stroke-linejoin="round"/>
    </g>
    <path d="M1052.312,423.696 L1052.312,366.132 L1246.295,184.73" fill-opacity="0" stroke="#474747" stroke-width="13" stroke-linecap="round" stroke-linejoin="round"/>
    <path d="M1052.052,424.696 C1065.694,424.696 1076.753,435.755 1076.753,449.397 C1076.753,463.04 1065.694,474.099 1052.052,474.099 C1038.41,474.099 1027.351,463.04 1027.351,449.397 C1027.351,435.755 1038.41,424.696 1052.052,424.696 z" fill-opacity="0" stroke="#474747" stroke-width="13"/>
    <path d="M71.343,324.368 C61.696,334.015 61.696,349.655 71.343,359.301 C80.989,368.947 96.629,368.947 106.275,359.301 C115.922,349.655 115.922,334.015 106.275,324.368 C96.629,314.722 80.989,314.722 71.343,324.368 z" fill-opacity="0" stroke="#474747" stroke-width="13"/>
    <g>
      <path d="M67.892,323.195 L-225.186,30.117" fill="#FFFFFF"/>
      <path d="M67.892,323.195 L-225.186,30.117" fill-opacity="0" stroke="#474747" stroke-width="13" stroke-linecap="round" stroke-linejoin="round"/>
    </g>
  </g>
</svg>
